<?xml version="1.0" encoding="UTF-8"?>
<svg width="400px" height="401px" viewBox="0 0 400 401" xmlns="http://www.w3.org/2000/svg" xmlns:xlink="http://www.w3.org/1999/xlink" version="1.1">
 <!-- Generated by Pixelmator Pro 2.0.8 -->
 <g id="svgg">
  <path id="path0" d="M14.026 -4.47 C11.984 -3.465 13.085 -1.706 19.018 3.506 23.182 7.164 24.296 8.213 28.741 12.662 32.64 16.565 40.418 25.113 42.439 27.716 42.885 28.289 43.685 29.238 44.217 29.824 45.993 31.78 49.384 36.09 53.562 41.704 54.957 43.578 56.992 46.311 58.085 47.778 60.139 50.536 67.006 60.577 68.622 63.185 69.127 64 70.883 66.826 72.524 69.465 74.165 72.104 75.991 75.104 76.581 76.132 77.171 77.159 77.778 78.2 77.929 78.444 84.915 89.718 96.841 115.542 100.644 127.63 102.342 133.026 104.412 140.751 105.908 147.278 107.49 154.179 109.395 153.704 79.467 153.868 48.051 154.04 26.877 154.27 25.185 154.457 9.638 156.18 2.148 169.404 10.71 180.014 13.493 183.462 14.947 185.243 15.113 185.407 15.195 185.489 15.995 186.422 16.891 187.481 17.786 188.541 18.652 189.558 18.815 189.741 18.978 189.925 20.178 191.319 21.481 192.839 22.785 194.359 24.519 196.348 25.333 197.26 26.148 198.171 27.481 199.706 28.296 200.671 29.111 201.636 30.844 203.637 32.148 205.119 33.452 206.6 35.252 208.661 36.148 209.698 38.968 212.962 39.788 213.9 42.231 216.652 43.539 218.127 46.326 221.333 48.423 223.778 50.52 226.222 52.384 228.356 52.565 228.519 52.745 228.681 53.273 229.281 53.738 229.852 54.203 230.422 55.072 231.422 55.669 232.074 56.678 233.177 62.132 239.449 65.185 243.019 65.919 243.876 67.719 245.95 69.185 247.628 70.652 249.306 72.385 251.305 73.037 252.07 77.872 257.742 81.328 261.749 81.602 262 81.78 262.163 82.659 263.163 83.556 264.222 84.452 265.281 85.325 266.281 85.497 266.444 85.668 266.607 86.286 267.341 86.869 268.074 87.453 268.807 88.246 269.747 88.632 270.162 89.294 270.873 93.15 275.336 95.003 277.536 95.47 278.09 96.789 279.621 97.933 280.938 100.053 283.377 104.824 288.936 105.96 290.29 107.016 291.549 110.933 296.065 111.106 296.222 111.24 296.344 113.855 299.406 116.925 303.034 117.271 303.443 119.805 306.384 122.555 309.57 125.305 312.755 128.222 316.147 129.037 317.108 131.617 320.15 136.403 325.698 136.58 325.852 136.72 325.974 139.222 328.9 142.407 332.664 144.149 334.724 149.173 340.537 149.322 340.667 149.507 340.827 153.747 345.78 159.722 352.815 160.898 354.2 161.944 355.4 162.046 355.481 162.148 355.563 163.361 356.963 164.741 358.593 166.121 360.222 167.353 361.63 167.478 361.722 167.604 361.814 168.014 362.305 168.39 362.815 168.765 363.324 169.879 364.649 170.865 365.759 171.85 366.869 173.509 368.766 174.55 369.975 193.652 392.131 194.892 393.259 200.148 393.259 205.404 393.259 206.645 392.131 225.746 369.975 226.788 368.766 228.446 366.869 229.432 365.759 230.417 364.649 231.531 363.324 231.907 362.815 232.282 362.305 232.693 361.814 232.818 361.722 232.944 361.63 234.175 360.222 235.556 358.593 236.936 356.963 238.148 355.563 238.25 355.481 238.352 355.4 239.398 354.2 240.575 352.815 246.549 345.78 250.789 340.827 250.975 340.667 251.124 340.537 256.147 334.724 257.89 332.664 261.074 328.9 263.576 325.974 263.716 325.852 263.893 325.698 268.679 320.15 271.259 317.108 272.074 316.147 274.991 312.755 277.741 309.57 280.492 306.384 283.025 303.443 283.371 303.034 286.441 299.406 289.056 296.344 289.191 296.222 289.363 296.065 293.281 291.549 294.337 290.29 295.472 288.936 300.244 283.377 302.363 280.938 303.508 279.621 304.826 278.09 305.293 277.536 307.146 275.336 311.002 270.873 311.665 270.162 312.051 269.747 312.844 268.807 313.427 268.074 314.011 267.341 314.628 266.607 314.8 266.444 314.971 266.281 315.844 265.281 316.741 264.222 317.637 263.163 318.516 262.163 318.694 262 318.968 261.749 322.424 257.742 327.259 252.07 327.911 251.305 329.644 249.306 331.111 247.628 332.578 245.95 334.378 243.876 335.111 243.019 338.165 239.449 343.619 233.177 344.628 232.074 345.224 231.422 346.093 230.422 346.558 229.852 347.023 229.281 347.551 228.681 347.732 228.519 347.912 228.356 349.776 226.222 351.873 223.778 353.971 221.333 356.757 218.127 358.066 216.652 360.508 213.9 361.329 212.962 364.148 209.698 365.044 208.661 366.844 206.601 368.148 205.121 369.452 203.641 371.119 201.708 371.852 200.826 372.585 199.943 373.919 198.408 374.815 197.414 375.711 196.42 377.511 194.362 378.815 192.841 380.119 191.32 381.319 189.925 381.481 189.741 381.644 189.558 382.51 188.541 383.406 187.481 384.301 186.422 385.101 185.489 385.183 185.407 385.35 185.243 386.804 183.462 389.586 180.014 398.148 169.404 390.659 156.18 375.111 154.457 373.42 154.27 352.245 154.04 320.829 153.868 290.901 153.704 292.807 154.179 294.389 147.278 295.885 140.751 297.954 133.026 299.652 127.63 303.455 115.542 315.381 89.718 322.367 78.444 322.519 78.2 323.125 77.159 323.715 76.132 324.305 75.104 326.131 72.104 327.772 69.465 329.413 66.826 331.169 64 331.674 63.185 333.29 60.577 340.157 50.536 342.212 47.778 343.304 46.311 345.339 43.578 346.734 41.704 350.912 36.09 354.303 31.78 356.079 29.824 356.612 29.238 357.412 28.289 357.857 27.716 359.928 25.049 367.668 16.541 371.548 12.665 376.003 8.215 377.18 7.106 381.185 3.586 387.203 -1.704 388.367 -3.473 386.447 -4.412 385.649 -4.802 14.818 -4.86 14.026 -4.47" fill="#242424" fill-opacity="1" stroke="none"/>
 </g>
</svg>
